<svg xmlns="http://www.w3.org/2000/svg" height="256" width="256">
  <g fill="#fff" clip-path="url(#a)">
    <path d="M180.429 130.588c-7.498-46.512-49.144-79.647-95.563-76.873a80.33 80.33 0 0 0-6.357.6C46.998 58.411 21.483 78.25 8.787 104.958a89.782 89.782 0 0 1 2.296-36.156c3.215-11.784 8.8-22.826 16.431-32.483 31.298-39.933 88.939-48.202 128.752-18.476a87.439 87.439 0 0 1 17.126 16.876c20.834 27.174 23.852 64.668 7.037 95.869Z"/>
    <path d="M152.07 232.601c-13.496 12.35-30.617 20.265-48.959 22.633C53.43 261.697 7.644 226.53.846 176.707c-2.43-17.477.326-35.267 7.94-51.262 12.695-26.708 38.21-46.547 69.723-50.642a82.04 82.04 0 0 1 6.357-.6c-21.245 19.318-32.907 48.504-28.71 79.275 2.18 16.26 8.748 31.663 19.033 44.632 18.055 22.702 46.437 36.318 76.881 34.491Z"/>
    <path d="M177.507 222.693a80.52 80.52 0 0 1-6.357.595c-30.442 1.827-58.824-11.788-76.877-34.495 34.523 8.456 72.948-3.669 96.476-33.677a93.16 93.16 0 0 0 8.764-13.357c16.819-31.198 13.803-68.697-7.042-95.872 32.445 10.487 57.755 38.853 62.679 74.898 6.798 49.825-27.96 95.464-77.643 101.908Z"/>
  </g>
  <defs>
    <clipPath id="a">
      <path fill="#fff" d="M0 0h256v256H0z"/>
    </clipPath>
  </defs>
</svg>
